<svg width="31" height="30" viewBox="0 0 31 30" fill="none" xmlns="http://www.w3.org/2000/svg">
<path d="M14.2613 16.5V21C14.2613 21.425 14.405 21.7812 14.6925 22.0688C14.98 22.3563 15.3363 22.5 15.7613 22.5C16.1863 22.5 16.5425 22.3563 16.83 22.0688C17.1175 21.7812 17.2613 21.425 17.2613 21V16.5H21.7613C22.1863 16.5 22.5425 16.3563 22.83 16.0688C23.1175 15.7813 23.2613 15.425 23.2613 15C23.2613 14.575 23.1175 14.2188 22.83 13.9313C22.5425 13.6438 22.1863 13.5 21.7613 13.5H17.2613V9C17.2613 8.575 17.1175 8.21875 16.83 7.93125C16.5425 7.64375 16.1863 7.5 15.7613 7.5C15.3363 7.5 14.98 7.64375 14.6925 7.93125C14.405 8.21875 14.2613 8.575 14.2613 9V13.5H9.76129C9.33629 13.5 8.98004 13.6438 8.69254 13.9313C8.40504 14.2188 8.26129 14.575 8.26129 15C8.26129 15.425 8.40504 15.7813 8.69254 16.0688C8.98004 16.3563 9.33629 16.5 9.76129 16.5H14.2613ZM15.7613 30C13.6863 30 11.7363 29.6063 9.91129 28.8188C8.08629 28.0313 6.49879 26.9625 5.14879 25.6125C3.79879 24.2625 2.73004 22.675 1.94254 20.85C1.15504 19.025 0.761292 17.075 0.761292 15C0.761292 12.925 1.15504 10.975 1.94254 9.15C2.73004 7.325 3.79879 5.7375 5.14879 4.3875C6.49879 3.0375 8.08629 1.96875 9.91129 1.18125C11.7363 0.39375 13.6863 0 15.7613 0C17.8363 0 19.7863 0.39375 21.6113 1.18125C23.4363 1.96875 25.0238 3.0375 26.3738 4.3875C27.7238 5.7375 28.7925 7.325 29.58 9.15C30.3675 10.975 30.7613 12.925 30.7613 15C30.7613 17.075 30.3675 19.025 29.58 20.85C28.7925 22.675 27.7238 24.2625 26.3738 25.6125C25.0238 26.9625 23.4363 28.0313 21.6113 28.8188C19.7863 29.6063 17.8363 30 15.7613 30ZM15.7613 27C19.1113 27 21.9488 25.8375 24.2738 23.5125C26.5988 21.1875 27.7613 18.35 27.7613 15C27.7613 11.65 26.5988 8.8125 24.2738 6.4875C21.9488 4.1625 19.1113 3 15.7613 3C12.4113 3 9.57379 4.1625 7.24879 6.4875C4.92379 8.8125 3.76129 11.65 3.76129 15C3.76129 18.35 4.92379 21.1875 7.24879 23.5125C9.57379 25.8375 12.4113 27 15.7613 27Z" fill="#2271D1"/>
</svg>
